<svg width="16" height="15" viewBox="0 0 16 15" fill="none" xmlns="http://www.w3.org/2000/svg">
<g clip-path="url(#clip0)">
<path d="M12.9345 14.9975C12.4404 14.7422 11.9557 14.492 11.4714 14.2411C10.3535 13.6617 9.23524 13.083 8.11922 12.4999C8.02835 12.4525 7.96225 12.4604 7.87514 12.5056C6.32894 13.3101 4.78086 14.1114 3.23309 14.9133C3.18296 14.9394 3.13157 14.9636 3.057 15C3.10557 14.7099 3.14943 14.4405 3.19611 14.1714C3.40165 12.991 3.60781 11.811 3.81366 10.631C3.86723 10.3233 3.9136 10.0137 3.97689 9.70788C3.9982 9.60551 3.97345 9.54743 3.90232 9.47929C2.6475 8.2773 1.3955 7.07281 0.141618 5.87051C0.1012 5.83189 0.0476237 5.80739 0 5.77599C0.0106527 5.75872 0.020992 5.74114 0.0316447 5.72387C0.331799 5.6796 0.631954 5.63438 0.932422 5.59136C1.84354 5.46105 2.75466 5.33169 3.66577 5.20169C4.22692 5.12162 4.78744 5.03967 5.34921 4.96368C5.47171 4.94704 5.54816 4.90434 5.60801 4.78345C6.37186 3.24391 7.14293 1.70815 7.91212 0.171443C7.93687 0.121831 7.96475 0.0741035 8.00486 0C8.18094 0.350736 8.34606 0.679178 8.51054 1.00762C9.14688 2.279 9.78135 3.551 10.423 4.81956C10.4537 4.88047 10.5399 4.94139 10.6076 4.95144C11.5901 5.09682 12.5739 5.23184 13.5571 5.37219C14.3601 5.4868 15.1625 5.60487 16.0003 5.7267C15.9411 5.78761 15.8985 5.83408 15.8531 5.87773C14.6079 7.07438 13.3631 8.27165 12.1155 9.46579C12.0366 9.54146 12.0087 9.60489 12.0294 9.72044C12.2637 11.0276 12.4896 12.3364 12.7177 13.6448C12.792 14.0706 12.8653 14.4967 12.9383 14.9224C12.9414 14.9419 12.9367 14.9626 12.9345 14.9975ZM11.6199 13.3823C11.5892 13.2024 11.5644 13.0592 11.54 12.916C11.3451 11.7708 11.1518 10.6254 10.9538 9.48086C10.934 9.36719 10.955 9.28963 11.0412 9.20579C11.9344 8.33571 12.823 7.46091 13.7125 6.58736C13.7557 6.54498 13.7961 6.50007 13.8513 6.4423C13.4239 6.3795 13.0188 6.31984 12.6137 6.26018C11.7289 6.13018 10.8447 5.99736 9.95899 5.87365C9.85215 5.85858 9.79576 5.82184 9.74907 5.72575C9.20046 4.59662 8.64746 3.46999 8.0954 2.34274C8.06909 2.28936 8.03963 2.23755 8.00172 2.16659C7.9682 2.22876 7.94533 2.26832 7.92527 2.30914C7.38731 3.40845 6.84622 4.5065 6.31547 5.60957C6.23401 5.77913 6.14377 5.86831 5.9445 5.89374C5.12456 5.99893 4.30775 6.1261 3.48969 6.24605C3.05042 6.31042 2.61147 6.37573 2.17252 6.44073C2.16437 6.45454 2.15654 6.46836 2.14839 6.48218C2.18693 6.50824 2.23079 6.52896 2.26369 6.56099C3.1651 7.44489 4.06493 8.33068 4.96696 9.21396C5.03464 9.28021 5.07631 9.34113 5.05814 9.44381C4.88237 10.4492 4.70973 11.4556 4.53741 12.4616C4.48665 12.7581 4.43934 13.0554 4.38639 13.376C4.46065 13.3399 4.51141 13.317 4.5606 13.2909C5.65939 12.7088 6.75912 12.1285 7.85509 11.541C7.96695 11.481 8.04653 11.4857 8.15431 11.5445C8.70292 11.8424 9.25592 12.1319 9.80766 12.4243C10.4008 12.737 10.9932 13.0504 11.6199 13.3823Z" fill="white"/>
</g>
<defs>
<clipPath id="clip0">
<rect width="16" height="15" fill="white"/>
</clipPath>
</defs>
</svg>
