<svg width="12" height="12" viewBox="0 0 12 12" fill="none" xmlns="http://www.w3.org/2000/svg">
<path d="M11.5738 1.65536C11.316 1.63185 11.0879 1.82181 11.0644 2.07962L11.0023 2.76093C9.9486 1.1061 8.11945 0 6.00003 0C3.72002 0 1.71071 1.30129 0.713256 3.25438C0.595507 3.48493 0.68696 3.76728 0.917513 3.88503C1.14811 4.00278 1.43042 3.91135 1.54817 3.68077C2.39231 2.02787 4.08747 0.937496 6.00003 0.937496C7.74323 0.937496 9.3164 1.84525 10.2177 3.26736L9.5493 2.79001C9.33862 2.63957 9.04586 2.68836 8.89542 2.89902C8.74497 3.1097 8.79377 3.40243 9.00442 3.5529L11.0312 5.00042C11.3282 5.21217 11.7379 5.01832 11.7704 4.66153L11.998 2.16475C12.0215 1.90691 11.8316 1.67887 11.5738 1.65536Z" fill="white"/>
<path d="M11.0825 8.11495C10.8519 7.99722 10.5696 8.08865 10.4518 8.31921C9.60767 9.97211 7.91251 11.0625 5.99995 11.0625C4.25674 11.0625 2.68358 10.1547 1.78232 8.73262L2.45068 9.20997C2.66136 9.36042 2.95409 9.31162 3.10456 9.10096C3.25501 8.89028 3.20621 8.59755 2.99555 8.44708L0.968806 6.99956C0.675393 6.78994 0.262379 6.97798 0.229567 7.33845L0.00196658 9.83523C-0.0215411 10.093 0.168419 10.3211 0.426207 10.3446C0.684346 10.3681 0.912088 10.1779 0.935572 9.92034L0.997681 9.23903C2.05138 10.8939 3.88053 12 5.99995 12C8.27996 12 10.2893 10.6987 11.2867 8.7456C11.4045 8.51505 11.313 8.2327 11.0825 8.11495Z" fill="white"/>
</svg>
