<svg width="9" height="9" viewBox="0 0 9 9" fill="none" xmlns="http://www.w3.org/2000/svg">
<path d="M7.99844 6.8789C8.30793 7.18853 8.30793 7.68878 7.99844 7.99841C7.84406 8.15279 7.64141 8.23034 7.43861 8.23034C7.23596 8.23034 7.03331 8.15279 6.87893 7.99841L4.50001 5.61935L2.1211 7.99841C1.96672 8.15279 1.76407 8.23034 1.56141 8.23034C1.35862 8.23034 1.15597 8.15279 1.00158 7.99841C0.692099 7.68878 0.692099 7.18853 1.00158 6.8789L3.38064 4.49998L1.00158 2.12107C0.692099 1.81144 0.692099 1.31119 1.00158 1.00155C1.31122 0.692068 1.81147 0.692068 2.1211 1.00155L4.50001 3.38061L6.87893 1.00155C7.18856 0.692068 7.68881 0.692068 7.99844 1.00155C8.30793 1.31119 8.30793 1.81144 7.99844 2.12107L5.61938 4.49998L7.99844 6.8789Z" fill="#FAFAFA"/>
</svg>
