<svg width="12" height="14" viewBox="0 0 12 14" fill="none" xmlns="http://www.w3.org/2000/svg">
<path d="M3.12893 8.2432C3.12893 8.84774 3.12893 9.42768 3.12893 10.0352C5.67759 10.0352 8.2241 10.0352 10.7835 10.0352C10.7835 10.4532 10.7835 10.8436 10.7835 11.2512C8.23398 11.2512 5.69306 11.2512 3.12506 11.2512C3.12506 12.174 3.12506 13.0813 3.12506 13.9998C2.71518 13.9998 2.33237 13.9998 1.91819 13.9998C1.91819 13.0921 1.91819 12.1857 1.91819 11.259C1.26255 11.259 0.637413 11.259 0.000678062 11.259C0.000678062 10.8471 0.000678062 10.4563 0.000678062 10.0417C0.635695 10.0417 1.2604 10.0417 1.89842 10.0417C1.89842 9.43329 1.89842 8.84904 1.89842 8.2432C1.26212 8.2432 0.636984 8.2432 0.000678062 8.2432C0.000678062 7.83124 0.000678062 7.44045 0.000678062 7.02676C0.636554 7.02676 1.26126 7.02676 1.90788 7.02676C1.90788 4.67983 1.90788 2.35621 1.90788 0.0166176C1.99853 0.0118676 2.0677 0.00539035 2.13688 0.00539035C4.02345 0.00539035 5.91003 0.0274131 7.79617 -0.000223298C9.60455 -0.0261324 11.2724 1.25162 11.8202 2.95817C12.3397 4.57662 11.7111 6.38076 10.2598 7.44261C9.54097 7.96856 8.74311 8.24795 7.84558 8.24363C6.33796 8.23629 4.8299 8.24233 3.32227 8.2432C3.26599 8.2432 3.20927 8.2432 3.12893 8.2432ZM3.12936 7.01856C4.79639 7.01856 6.44021 7.06692 8.08017 7.00604C10.069 6.9322 11.0615 5.17038 10.7178 3.48369C10.4351 2.09755 9.33173 1.23046 7.84086 1.2296C6.33366 1.22873 4.82689 1.22916 3.31969 1.2296C3.25739 1.2296 3.1951 1.23694 3.12936 1.24126C3.12936 3.17278 3.12936 5.08747 3.12936 7.01856Z" fill="white"/>
</svg>
