<svg width="15" height="15" viewBox="0 0 15 15" fill="none" xmlns="http://www.w3.org/2000/svg">
<path d="M1.18127 13.0279L1.18114 13.0277C1.10419 12.8913 1.10574 12.7226 1.18719 12.5875L1.18127 13.0279ZM1.18127 13.0279C1.25912 13.1652 1.40503 13.25 1.56249 13.25H13.4375C13.5949 13.25 13.7409 13.1653 13.8187 13.0279L13.8188 13.0277C13.8958 12.8912 13.8943 12.7225 13.8127 12.5873C13.8126 12.5873 13.8126 12.5873 13.8126 12.5873L12.7391 10.7988C12.7391 10.7988 12.7391 10.7988 12.739 10.7988C12.2557 9.99259 12 9.06983 12 8.12938V6.56249C12 4.08159 9.9809 2.0625 7.5 2.0625C5.0191 2.0625 3.00001 4.08159 3.00001 6.56249V8.12938C3.00001 9.06983 2.7443 9.99259 2.26095 10.7988C2.26094 10.7988 2.26093 10.7988 2.26092 10.7988L1.18737 12.5873L1.18127 13.0279ZM11.9885 11.2487L12.6648 12.375H2.33516L3.01094 11.2487C3.57635 10.3068 3.875 9.22827 3.875 8.12938V6.56249C3.875 4.5634 5.50091 2.93749 7.5 2.93749C9.49909 2.93749 11.125 4.5634 11.125 6.56249V8.12938C11.125 9.22827 11.4237 10.3067 11.9884 11.2486L11.9885 11.2487Z" fill="white" stroke="white" stroke-width="0.25"/>
<path d="M6.37499 1.25001C6.37499 0.629661 6.87965 0.125 7.5 0.125C8.12035 0.125 8.62501 0.62966 8.62501 1.25001V2.49999C8.62501 2.60346 8.54096 2.6875 8.4375 2.6875C8.33402 2.6875 8.24999 2.60345 8.24999 2.50002V1.25001C8.24999 0.835974 7.91403 0.50002 7.5 0.50002C7.08596 0.50002 6.75001 0.835974 6.75001 1.25001V2.49999C6.75001 2.60345 6.66596 2.6875 6.5625 2.6875C6.45903 2.6875 6.37499 2.60345 6.37499 2.50002V1.25001Z" fill="white" stroke="white" stroke-width="0.25"/>
<path d="M8.42024 12.9072L8.42024 12.9072C8.51306 13.065 8.56312 13.2526 8.56312 13.4375C8.56312 14.0234 8.08654 14.5 7.50062 14.5C6.91469 14.5 6.43812 14.0234 6.43812 13.4375C6.43812 13.2527 6.48811 13.0653 6.58081 12.9075C6.63284 12.8178 6.60293 12.7034 6.51427 12.6507C6.42184 12.5987 6.30848 12.6295 6.25656 12.7176C6.12976 12.9345 6.06248 13.1833 6.06248 13.4375L8.42024 12.9072ZM8.42024 12.9072C8.36799 12.8184 8.39754 12.7034 8.48704 12.6506M8.42024 12.9072L8.48704 12.6506M8.48704 12.6506C8.5777 12.599 8.69197 12.629 8.74479 12.7178C8.87152 12.9347 8.93875 13.1834 8.93875 13.4375H9.06375M8.48704 12.6506L8.85249 12.6544C8.99063 12.8906 9.06375 13.1612 9.06375 13.4375M9.06375 13.4375C9.06249 14.2994 8.36189 15 7.5 15C6.63812 15 5.93751 14.2994 5.93748 13.4375H6.06248C6.06251 14.2303 6.70716 14.875 7.5 14.875C8.29281 14.875 8.93759 14.2303 8.93875 13.4373L9.06375 13.4375Z" fill="white" stroke="white" stroke-width="0.25"/>
</svg>
