<svg width="25" height="25" viewBox="0 0 25 25" fill="none" xmlns="http://www.w3.org/2000/svg">
<circle cx="12.5" cy="12.5" r="12" stroke="#B5C1D0"/>
<path d="M17.5703 12.0703H12.9297V7.42969C12.9297 7.19237 12.7373 7 12.5 7C12.2627 7 12.0703 7.19237 12.0703 7.42969V12.0703H7.42969C7.19237 12.0703 7 12.2627 7 12.5C7 12.7373 7.19237 12.9297 7.42969 12.9297H12.0703V17.5703C12.0703 17.8076 12.2627 18 12.5 18C12.7373 18 12.9297 17.8076 12.9297 17.5703V12.9297H17.5703C17.8076 12.9297 18 12.7373 18 12.5C18 12.2627 17.8076 12.0703 17.5703 12.0703Z" fill="#B5C1D0"/>
</svg>
